<svg width="512" height="73" viewBox="0 0 512 73" fill="none" xmlns="http://www.w3.org/2000/svg">
<path d="M50 17.1H14.4V33.9H42.5V45H14.4V72H0.600006V6.00001H50V17.1Z" fill="black"/>
<path d="M67.3305 14.8C64.4638 14.8 62.3305 14.2 60.9305 13C59.5305 11.7333 58.8305 9.90001 58.8305 7.50001C58.8305 5.03334 59.5305 3.20001 60.9305 2.00001C62.3305 0.733339 64.4638 0.100006 67.3305 0.100006C70.1971 0.100006 72.3305 0.733339 73.7305 2.00001C75.1305 3.20001 75.8305 5.03334 75.8305 7.50001C75.8305 9.90001 75.1305 11.7333 73.7305 13C72.3305 14.2 70.1971 14.8 67.3305 14.8ZM74.1305 22V72H60.4305V22H74.1305Z" fill="black"/>
<path d="M102.153 0.100006V56.6C102.153 58.9333 102.553 60.5667 103.353 61.5C104.153 62.4333 105.486 62.9 107.353 62.9C108.486 62.9 109.42 62.8333 110.153 62.7C110.886 62.5 111.82 62.2333 112.953 61.9L111.753 70.9C110.62 71.5667 109.186 72.0667 107.453 72.4C105.786 72.8 104.12 73 102.453 73C97.5865 73 94.0198 71.8333 91.7531 69.5C89.5531 67.1 88.4531 63.3 88.4531 58.1V0.100006H102.153Z" fill="black"/>
<path d="M120.587 72V22H132.887L133.387 31C135.053 27.6667 137.32 25.1667 140.187 23.5C143.12 21.8333 146.353 21 149.887 21C153.487 21 156.72 21.8333 159.587 23.5C162.52 25.1667 164.72 27.6333 166.187 30.9C167.253 28.7 168.687 26.8667 170.487 25.4C172.287 23.9333 174.287 22.8333 176.487 22.1C178.687 21.3667 180.92 21 183.187 21C186.453 21 189.42 21.6667 192.087 23C194.82 24.3333 196.987 26.3333 198.587 29C200.187 31.6667 200.987 35.0667 200.987 39.2V72H187.287V41.9C187.287 38.2333 186.487 35.6333 184.887 34.1C183.287 32.5667 181.22 31.8 178.687 31.8C176.687 31.8 174.82 32.3 173.087 33.3C171.42 34.3 170.087 35.8 169.087 37.8C168.153 39.7333 167.687 42.1667 167.687 45.1V72H153.987V41.9C153.987 38.2333 153.153 35.6333 151.487 34.1C149.887 32.5667 147.82 31.8 145.287 31.8C143.553 31.8 141.82 32.2667 140.087 33.2C138.42 34.1333 137.02 35.6 135.887 37.6C134.82 39.6 134.287 42.2333 134.287 45.5V72H120.587Z" fill="black"/>
<path d="M235.118 73C230.051 73 225.418 72.1 221.218 70.3C217.085 68.5 213.718 65.9667 211.118 62.7L219.018 54.7C220.618 57.1 222.751 59.0667 225.418 60.6C228.085 62.1333 231.251 62.9 234.918 62.9C237.518 62.9 239.585 62.5333 241.118 61.8C242.718 61 243.518 59.7667 243.518 58.1C243.518 57.0333 243.151 56.1333 242.418 55.4C241.685 54.6 240.218 53.9667 238.018 53.5L229.218 51.7C223.418 50.5 219.285 48.7 216.818 46.3C214.418 43.8333 213.218 40.6667 213.218 36.8C213.218 34.0667 214.018 31.5 215.618 29.1C217.285 26.7 219.751 24.7667 223.018 23.3C226.285 21.7667 230.351 21 235.218 21C240.218 21 244.551 21.8 248.218 23.4C251.951 24.9333 254.885 27.2333 257.018 30.3L248.818 38.3C247.351 35.9667 245.418 34.2 243.018 33C240.685 31.7333 238.218 31.1 235.618 31.1C233.751 31.1 232.151 31.3 230.818 31.7C229.485 32.1 228.485 32.6667 227.818 33.4C227.151 34.0667 226.818 34.9333 226.818 36C226.818 37.0667 227.285 38 228.218 38.8C229.151 39.5333 230.851 40.1667 233.318 40.7L243.518 42.8C248.451 43.8 251.985 45.5 254.118 47.9C256.251 50.2333 257.318 53.0667 257.318 56.4C257.318 59.6 256.451 62.4667 254.718 65C253.051 67.4667 250.551 69.4333 247.218 70.9C243.951 72.3 239.918 73 235.118 73Z" fill="black"/>
<path d="M356.709 53.8C355.443 58.0667 353.443 61.6333 350.709 64.5C347.976 67.3667 344.743 69.5 341.009 70.9C337.276 72.3 333.176 73 328.709 73C322.176 73 316.509 71.6333 311.709 68.9C306.976 66.1667 303.309 62.2667 300.709 57.2C298.176 52.1333 296.909 46.0667 296.909 39C296.909 31.9333 298.176 25.8667 300.709 20.8C303.309 15.7333 306.976 11.8333 311.709 9.10001C316.509 6.36667 322.109 5.00001 328.509 5.00001C333.043 5.00001 337.143 5.63334 340.809 6.90001C344.476 8.10001 347.576 9.96667 350.109 12.5C352.709 15.0333 354.609 18.2333 355.809 22.1L343.309 27.4C342.176 23.4 340.443 20.5667 338.109 18.9C335.776 17.1667 332.776 16.3 329.109 16.3C325.509 16.3 322.343 17.1667 319.609 18.9C316.943 20.6333 314.876 23.2 313.409 26.6C311.943 29.9333 311.209 34.0667 311.209 39C311.209 43.8667 311.876 48 313.209 51.4C314.609 54.8 316.643 57.3667 319.309 59.1C321.976 60.8333 325.243 61.7 329.109 61.7C332.709 61.7 335.809 60.7333 338.409 58.8C341.076 56.8667 342.943 53.9333 344.009 50L356.709 53.8Z" fill="black"/>
<path d="M389.871 21C394.938 21 399.371 22.0333 403.171 24.1C407.038 26.1667 410.038 29.1333 412.171 33C414.371 36.8667 415.471 41.5333 415.471 47C415.471 52.4 414.371 57.0667 412.171 61C410.038 64.8667 407.038 67.8333 403.171 69.9C399.371 71.9667 394.938 73 389.871 73C384.871 73 380.438 71.9667 376.571 69.9C372.704 67.8333 369.671 64.8667 367.471 61C365.338 57.0667 364.271 52.4 364.271 47C364.271 41.5333 365.338 36.8667 367.471 33C369.671 29.1333 372.704 26.1667 376.571 24.1C380.438 22.0333 384.871 21 389.871 21ZM389.871 31.2C387.338 31.2 385.171 31.8 383.371 33C381.638 34.1333 380.304 35.8667 379.371 38.2C378.438 40.5333 377.971 43.4667 377.971 47C377.971 50.5333 378.438 53.4667 379.371 55.8C380.304 58.1333 381.638 59.9 383.371 61.1C385.171 62.2333 387.338 62.8 389.871 62.8C392.338 62.8 394.438 62.2333 396.171 61.1C397.971 59.9 399.338 58.1333 400.271 55.8C401.204 53.4667 401.671 50.5333 401.671 47C401.671 43.4667 401.204 40.5333 400.271 38.2C399.338 35.8667 397.971 34.1333 396.171 33C394.438 31.8 392.338 31.2 389.871 31.2Z" fill="black"/>
<path d="M449.734 21C454.801 21 459.234 22.0333 463.034 24.1C466.901 26.1667 469.901 29.1333 472.034 33C474.234 36.8667 475.334 41.5333 475.334 47C475.334 52.4 474.234 57.0667 472.034 61C469.901 64.8667 466.901 67.8333 463.034 69.9C459.234 71.9667 454.801 73 449.734 73C444.734 73 440.301 71.9667 436.434 69.9C432.568 67.8333 429.534 64.8667 427.334 61C425.201 57.0667 424.134 52.4 424.134 47C424.134 41.5333 425.201 36.8667 427.334 33C429.534 29.1333 432.568 26.1667 436.434 24.1C440.301 22.0333 444.734 21 449.734 21ZM449.734 31.2C447.201 31.2 445.034 31.8 443.234 33C441.501 34.1333 440.168 35.8667 439.234 38.2C438.301 40.5333 437.834 43.4667 437.834 47C437.834 50.5333 438.301 53.4667 439.234 55.8C440.168 58.1333 441.501 59.9 443.234 61.1C445.034 62.2333 447.201 62.8 449.734 62.8C452.201 62.8 454.301 62.2333 456.034 61.1C457.834 59.9 459.201 58.1333 460.134 55.8C461.068 53.4667 461.534 50.5333 461.534 47C461.534 43.4667 461.068 40.5333 460.134 38.2C459.201 35.8667 457.834 34.1333 456.034 33C454.301 31.8 452.201 31.2 449.734 31.2Z" fill="black"/>
<path d="M500.298 0.100006V56.6C500.298 58.9333 500.698 60.5667 501.498 61.5C502.298 62.4333 503.631 62.9 505.498 62.9C506.631 62.9 507.564 62.8333 508.298 62.7C509.031 62.5 509.964 62.2333 511.098 61.9L509.898 70.9C508.764 71.5667 507.331 72.0667 505.598 72.4C503.931 72.8 502.264 73 500.598 73C495.731 73 492.164 71.8333 489.898 69.5C487.698 67.1 486.598 63.3 486.598 58.1V0.100006H500.298Z" fill="black"/>
<circle cx="393" cy="55" r="7" fill="black"/>
<circle cx="453" cy="55" r="7" fill="black"/>
</svg>
